#!OML:ASF F:\VICON\USERDATA\INSTALL\Justin_Nancy\Justin_Nancy.ASF
:FULLY-SPECIFIED
:DEGREES
35
root 9.87995 15.4271 -7.71914 -11.574 -41.0657 19.7656
lowerback 16.8684 2.71652 -1.69678
upperback 3.51302 3.10104 -1.48077
thorax -5.68793 1.50113 -1.27147
lowerneck -16.8357 -3.79685 -9.91201
upperneck 13.6506 -3.84482 6.35686
head 7.26963 -1.79035 3.27044
rclavicle 3.57812e-015 3.18055e-015
rhumerus -42.5635 13.8472 -89.3767
rradius 123.282
rwrist -23.7377
rhand -9.20758 26.2456
rfingers 7.12502
rthumb 16.7466 -3.05211
lclavicle 3.57812e-015 3.18055e-015
lhumerus -53.4704 -9.09584 96.0086
lradius 114.151
lwrist 33.9879
lhand -8.41892 4.38931
lfingers 7.12502
lthumb 17.5057 33.6211
rfemur -35.8014 -3.46737 24.65
rtibia 83.7187
rfoot -11.6504 -10.119
rtoes -14.1071
lfemur -23.8832 -11.0318 -2.49943
ltibia 26.709
lfoot 0.0205535 5.16865
ltoes -25.7984
36
root 9.84211 15.3663 -7.39601 -12.4763 -41.1903 22.1034
lowerback 16.6967 2.61211 -3.19102
upperback 3.485 2.67125 -1.99612
thorax -5.66989 1.3085 -0.877489
lowerneck -16.8658 -3.33604 -9.66506
upperneck 13.3535 -3.26214 6.34911
head 7.12263 -1.49566 3.29302
rclavicle 3.06128e-014 -2.70347e-014
rhumerus -42.2071 14.207 -90.0735
rradius 122.765
rwrist -22.5767
rhand -8.61292 27.0607
rfingers 7.12502
rthumb 17.319 -2.18768
lclavicle 3.06128e-014 -2.70347e-014
lhumerus -52.9634 -9.5261 96.2121
lradius 113.76
lwrist 33.7643
lhand -8.21016 0.186151
lfingers 7.12502
lthumb 17.7066 29.4
rfemur -39.4422 -5.19524 21.973
rtibia 88.1258
rfoot -9.39779 -6.87213
rtoes 5.32751
lfemur -24.0032 -10.2539 -4.41736
ltibia 26.1436
lfoot 1.12863 3.64882
ltoes -19.5742
37
root 9.75036 15.3692 -6.93888 -14.5536 -43.895 24.0445
lowerback 16.057 3.04426 -3.03981
upperback 4.16267 3.26527 -2.57157
thorax -4.5678 1.58299 -1.63723
lowerneck -16.7711 -2.84759 -9.28613
upperneck 12.7198 -2.66313 6.268
head 6.84311 -1.19116 3.26651
rclavicle 5.1684e-015 -7.95139e-015
rhumerus -41.4877 14.4198 -90.9316
rradius 121.89
rwrist -21.2503
rhand -7.91299 27.5484
rfingers 7.12502
rthumb 17.9926 -1.63939
lclavicle 5.1684e-015 -7.95139e-015
lhumerus -51.9973 -10.0174 95.9588
lradius 114.457
lwrist 35.4949
lhand -7.64915 2.27442
lfingers 7.12502
lthumb 18.2464 31.4386
rfemur -40.8532 -5.11743 19.9277
rtibia 91.4864
rfoot -7.14659 -3.20442
rtoes 10.2353
lfemur -20.9616 -9.84299 -6.14285
ltibia 26.7777
lfoot -1.89062 6.29025
ltoes -28.6324
38
root 9.66205 15.3422 -6.51688 -15.9039 -45.9842 24.937
lowerback 16.283 3.36395 -2.89422
upperback 4.3745 3.69579 -2.53137
thorax -4.45594 1.78847 -1.76687
lowerneck -19.7089 -2.82226 -8.35337
upperneck 13.6496 -2.6665 6.40648
head 7.63198 -1.09206 3.16503
rclavicle -2.38542e-015 -6.36111e-014
rhumerus -42.2665 14.6708 -91.1919
rradius 121.524
rwrist -19.6833
rhand -7.35975 28.2221
rfingers 7.12502
rthumb 18.5248 -0.915844
lclavicle -2.38542e-015 -6.36111e-014
lhumerus -51.5779 -10.7009 96.4169
lradius 115.187
lwrist 36.605
lhand -7.55403 4.45517
lfingers 7.12502
lthumb 18.3379 33.6108
rfemur -42.3672 -5.60942 19.051
rtibia 94.3409
rfoot -6.52457 0.0756337
rtoes 13.1441
lfemur -18.5681 -8.68777 -7.09666
ltibia 27.8728
lfoot -4.46427 6.84917
ltoes -30.6724
39
root 9.57925 15.287 -6.13891 -16.9719 -47.3899 25.3865
lowerback 17.2514 3.50541 -3.46588
upperback 4.17178 3.76644 -1.822
thorax -5.2739 1.82786 -0.779738
lowerneck -18.53 -2.18826 -8.41236
upperneck 13.5841 -1.71429 5.45595
head 7.32807 -0.749419 2.96948
rclavicle -1.08536e-013 2.8625e-014
rhumerus -43.8163 15.3057 -90.938
rradius 120.964
rwrist -17.6393
rhand -7.26168 28.8531
rfingers 7.12502
rthumb 18.6191 -0.27582
lclavicle -1.08536e-013 2.8625e-014
lhumerus -51.7155 -10.8866 97.8687
lradius 115.748
lwrist 36.5086
lhand -7.78487 5.23914
lfingers 7.12502
lthumb 18.1158 34.4155
rfemur -43.8612 -6.5895 18.7474
rtibia 96.587
rfoot -6.95529 2.69944
rtoes 13.1089
lfemur -16.7908 -6.74156 -7.78954
ltibia 29.5257
lfoot -8.14978 5.43104
ltoes -37.4942
40
root 9.50016 15.2149 -5.78782 -17.753 -48.327 25.3238
lowerback 18.3101 3.3506 -3.66522
upperback 4.03263 3.51174 -1.09662
thorax -6.04283 1.71035 0.0955028
lowerneck -17.2421 -1.53009 -8.88004
upperneck 13.4388 -0.727011 4.95857
head 6.99105 -0.361637 2.987
rclavicle 4.21423e-014 4.29375e-014
rhumerus -45.3742 15.8108 -90.7738
rradius 120.246
rwrist -15.8807
rhand -8.59883 29.5193
rfingers 7.12502
rthumb 17.3326 0.272198
lclavicle 4.21423e-014 4.29375e-014
lhumerus -51.6104 -10.9447 99.0771
lradius 116.417
lwrist 36.0982
lhand -6.69847 6.14107
lfingers 7.12502
lthumb 19.1608 35.2172
rfemur -45.0252 -7.88221 19.0654
rtibia 98.1564
rfoot -7.67612 4.50244
rtoes 12.1732
lfemur -15.2317 -5.04017 -8.03936
ltibia 31.0281
lfoot -12.1433 3.60824
ltoes -37.1077
41
root 9.41948 15.1299 -5.45125 -18.4117 -48.6442 25.3525
lowerback 18.8759 2.84239 -3.27891
upperback 4.17321 2.88292 -1.1216
thorax -6.15272 1.39322 -0.0199264
lowerneck -16.7518 -0.938211 -8.67671
upperneck 13.3741 -0.0209632 4.97554
head 6.83425 -0.0145246 3.03158
rclavicle 1.27222e-014 -6.36111e-015
rhumerus -45.1941 14.8115 -91.5019
rradius 118.558
rwrist -14.1613
rhand -9.45216 29.5047
rfingers 7.12502
rthumb 16.5111 0.187269
lclavicle 1.27222e-014 -6.36111e-015
lhumerus -50.69 -11.6765 98.9436
lradius 117.114
lwrist 35.7583
lhand -4.58665 7.24199
lfingers 7.12502
lthumb 21.1905 36.1038
rfemur -46.3817 -9.64755 19.5775
rtibia 99.2491
rfoot -8.27847 5.78221
rtoes 11.2889
lfemur -14.1127 -4.41757 -8.32042
ltibia 32.2788
lfoot -14.8623 2.36613
ltoes -34.6323
42
root 9.336 15.0295 -5.1159 -19.1491 -48.5032 26.0589
lowerback 19.7744 2.38595 -4.20478
upperback 3.75552 2.06852 -0.835212
thorax -7.10285 1.03047 0.970109
lowerneck -16.1063 -0.385424 -8.67908
upperneck 13.6345 0.715665 4.67616
head 6.75727 0.301273 3.00784
rclavicle -2.38542e-015 -1.11319e-014
rhumerus -47.2746 14.676 -91.5004
rradius 117.749
rwrist -12.8028
rhand -10.0534 29.4603
rfingers 7.12502
rthumb 15.9322 0.0956102
lclavicle -2.38542e-015 -1.11319e-014
lhumerus -50.4403 -12.0633 99.7156
lradius 117.814
lwrist 33.6181
lhand -4.87095 6.37696
lfingers 7.12502
lthumb 20.9174 35.2692
rfemur -48.5926 -11.859 19.8292
rtibia 100.227
rfoot -8.8225 6.68862
rtoes 9.99063
lfemur -13.5812 -4.75704 -9.16082
ltibia 33.5044
lfoot -16.996 1.91224
ltoes -32.4599
43
root 9.23649 14.9314 -4.77122 -19.9268 -48.9487 26.9855
lowerback 20.0718 2.05143 -5.06453
upperback 3.59938 1.437 -0.716403
thorax -7.42225 0.752662 1.74106
lowerneck -15.9361 0.195041 -8.36887
upperneck 13.9256 1.47439 4.30083
head 6.77416 0.641676 2.91278
rclavicle 2.3059e-014 -3.81667e-014
rhumerus -48.3799 13.8901 -91.5863
rradius 116.307
rwrist -11.283
rhand -10.4087 29.7185
rfingers 7.12502
rthumb 15.59 0.326817
lclavicle 2.3059e-014 -3.81667e-014
lhumerus -49.3883 -12.7631 99.7779
lradius 118.703
lwrist 32.3725
lhand -5.48751 5.92576
lfingers 7.12502
lthumb 20.3249 34.8822
rfemur -51.0298 -13.3207 20.5364
rtibia 100.82
rfoot -9.38676 6.69843
rtoes 6.91147
lfemur -12.9615 -4.45198 -10.0245
ltibia 34.8986
lfoot -20.0369 1.00106
ltoes -29.7196
44
root 9.1062 14.8762 -4.42618 -20.7552 -49.5763 28.2045
lowerback 19.7548 1.73582 -5.7591
upperback 3.67922 0.885855 -0.859261
thorax -7.13408 0.491302 2.13092
lowerneck -16.3047 0.753815 -7.88218
upperneck 14.1645 2.19704 4.01561
head 6.87394 0.987439 2.82086
rclavicle -4.92986e-014 -1.11319e-014
rhumerus -48.9954 12.9434 -91.7867
rradius 114.773
rwrist -10.3226
rhand -11.3802 29.9744
rfingers 7.12502
rthumb 14.6542 0.512228
lclavicle -4.92986e-014 -1.11319e-014
lhumerus -47.6482 -13.7942 99.1344
lradius 119.932
lwrist 32.3662
lhand -5.10285 6.41579
lfingers 7.12502
lthumb 20.6946 35.3324
rfemur -53.2712 -14.3748 21.454
rtibia 100.72
rfoot -10.0673 5.87814
rtoes 5.16577
lfemur -12.3802 -2.85549 -11.188
ltibia 36.283
lfoot -21.6425 -0.38702
ltoes -25.9303
45
root 8.96055 14.8516 -4.10832 -21.5886 -49.7256 29.6016
lowerback 19.5278 1.42466 -6.74382
upperback 3.76762 0.278334 -1.01868
thorax -6.86874 0.205175 2.67449
lowerneck -16.8639 1.13803 -7.62057
upperneck 14.2631 2.71086 3.96395
head 6.97213 1.24562 2.82347
rclavicle 3.49861e-014 -1.59028e-014
rhumerus -49.7087 11.7782 -91.8341
rradius 113.548
rwrist -9.96891
rhand -13.05 29.9552
rfingers 7.12502
rthumb 13.045 0.383162
lclavicle 3.49861e-014 -1.59028e-014
lhumerus -45.496 -15.0234 98.383
lradius 121.371
lwrist 33.5559
lhand -3.98724 7.71188
lfingers 7.12502
lthumb 21.7662 36.508
rfemur -55.3996 -15.5315 22.4709
rtibia 99.8516
rfoot -10.7624 4.66466
rtoes 3.82953
lfemur -12.3111 -0.826829 -12.6224
ltibia 37.8177
lfoot -20.781 -2.90059
ltoes -17.3007
46
root 8.82023 14.798 -3.79662 -22.5817 -50.1719 31.1979
lowerback 19.7444 1.39207 -8.2353
upperback 3.51411 -0.090477 -0.857923
thorax -7.21836 0.079518 3.78771
lowerneck -17.0612 1.45601 -7.79348
upperneck 14.5494 3.22477 3.82532
head 7.06718 1.464 2.86712
rclavicle 1.59028e-015 1.59028e-014
rhumerus -51.558 11.0293 -91.2386
rradius 112.952
rwrist -10.0219
rhand -14.2981 29.5841
rfingers 7.12502
rthumb 11.8416 -0.0610729
lclavicle 1.59028e-015 1.59028e-014
lhumerus -43.6227 -15.9209 98.0271
lradius 122.619
lwrist 33.7823
lhand -3.1819 7.93019
lfingers 7.12502
lthumb 22.5394 36.6346
rfemur -57.703 -15.9835 23.7939
rtibia 98.5779
rfoot -11.1925 3.36031
rtoes -1.19466
lfemur -11.9865 -0.126169 -13.7587
ltibia 39.1668
lfoot -24.0019 -3.38766
ltoes -19.194
47
root 8.66077 14.7833 -3.4922 -23.2973 -50.6192 32.0855
lowerback 19.2348 0.83864 -7.91243
upperback 3.92825 -0.756387 -1.65215
thorax -6.42885 -0.30485 2.90584
lowerneck -17.2927 1.90755 -7.0577
upperneck 14.2267 3.6016 4.23463
head 6.97975 1.73377 2.9181
rclavicle 3.18055e-014 -3.18055e-015
rhumerus -51.4985 8.29632 -92.0807
rradius 111.408
rwrist -9.74806
rhand -13.7568 29.458
rfingers 7.12502
rthumb 12.3636 -0.156411
lclavicle 3.18055e-014 -3.18055e-015
lhumerus -40.6397 -17.6508 95.4433
lradius 123.702
lwrist 32.805
lhand -4.59103 6.57386
lfingers 7.12502
lthumb 21.1863 35.4362
rfemur -59.1007 -16.4247 25.5698
rtibia 96.5981
rfoot -11.546 1.92503
rtoes -6.00766
lfemur -10.9491 0.874034 -14.6178
ltibia 39.9123
lfoot -25.8881 -3.41351
ltoes -21.2897
48
root 8.49046 14.8058 -3.18247 -23.0583 -50.8876 31.6343
lowerback 19.7798 0.323062 -7.62965
upperback 3.58181 -1.39562 -1.15786
thorax -7.02332 -0.578869 3.4479
lowerneck -17.0473 1.97198 -8.04615
upperneck 14.4412 3.87919 4.43324
head 6.96745 1.82464 3.16989
rclavicle -2.8625e-014 1.27222e-014
rhumerus -52.4008 5.71963 -91.2338
rradius 109.989
rwrist -9.66103
rhand -13.0058 29.367
rfingers 7.12502
rthumb 13.0876 -0.202395
lclavicle -2.8625e-014 1.27222e-014
lhumerus -38.6625 -17.9085 94.745
lradius 124.888
lwrist 32.3998
lhand -4.83577 5.83521
lfingers 7.12502
lthumb 20.9512 34.7237
rfemur -59.805 -17.258 28.0655
rtibia 93.8926
rfoot -12.0499 0.534713
rtoes -8.45438
lfemur -9.59167 2.03406 -14.8468
ltibia 40.1897
lfoot -26.8459 -0.954752
ltoes -29.0578
49
root 8.30975 14.8401 -2.87553 -22.3988 -51.8519 30.9056
lowerback 19.6799 -0.149152 -6.75689
upperback 3.36085 -1.78978 -0.743163
thorax -7.18056 -0.768768 3.50126
lowerneck -13.9448 2.32805 -10.0316
upperneck 12.9972 4.53756 4.23732
head 5.89926 2.04185 3.37623
rclavicle 9.22361e-014 -5.24792e-014
rhumerus -54.2188 4.43797 -90.5784
rradius 109.57
rwrist -10.3935
rhand -13.0369 29.557
rfingers 7.12502
rthumb 13.0576 -0.0142824
lclavicle 9.22361e-014 -5.24792e-014
lhumerus -36.343 -17.4633 93.5583
lradius 125.922
lwrist 32.7574
lhand -4.11985 6.24308
lfingers 7.12502
lthumb 21.6389 35.0539
rfemur -60.445 -16.9673 30.4755
rtibia 91.2162
rfoot -12.6115 1.01019
rtoes -0.535293
lfemur -8.05703 2.23285 -14.3177
ltibia 39.6726
lfoot -27.454 -3.71024
ltoes -20.7278
